<svg width="1000" height="1000" viewBox="0 0 1000 1000" fill="none" xmlns="http://www.w3.org/2000/svg">
<g clip-path="url(#clip0_769_1975)">
<g clip-path="url(#clip1_769_1975)">
<path d="M1025 -25H-25V1025H1025V-25Z" fill="black"/>
<path d="M100 0H0V100H100V0Z" fill="#0000FF"/>
<path d="M200 0H100V100H200V0Z" fill="#0000FF"/>
<path d="M300 0H200V100H300V0Z" fill="#0000FF"/>
<path d="M400 0H300V100H400V0Z" fill="black"/>
<path d="M500 0H400V100H500V0Z" fill="black"/>
<path d="M600 0H500V100H600V0Z" fill="black"/>
<path d="M700 0H600V100H700V0Z" fill="black"/>
<path d="M800 0H700V100H800V0Z" fill="#0000FF"/>
<path d="M900 0H800V100H900V0Z" fill="#0000FF"/>
<path d="M1000 0H900V100H1000V0Z" fill="#0000FF"/>
<path d="M100 100H0V200H100V100Z" fill="#0000FF"/>
<path d="M200 100H100V200H200V100Z" fill="#FF00FF"/>
<path d="M300 100H200V200H300V100Z" fill="#FF00FF"/>
<path d="M400 100H300V200H400V100Z" fill="#FF0000"/>
<path d="M500 100H400V200H500V100Z" fill="black"/>
<path d="M600 100H500V200H600V100Z" fill="black"/>
<path d="M700 100H600V200H700V100Z" fill="#FF0000"/>
<path d="M800 100H700V200H800V100Z" fill="#FF00FF"/>
<path d="M900 100H800V200H900V100Z" fill="#FF00FF"/>
<path d="M1000 100H900V200H1000V100Z" fill="#0000FF"/>
<path d="M100 200H0V300H100V200Z" fill="#0000FF"/>
<path d="M200 200H100V300H200V200Z" fill="#FF00FF"/>
<path d="M300 200H200V300H300V200Z" fill="white"/>
<path d="M400 200H300V300H400V200Z" fill="#FFFF00"/>
<path d="M500 200H400V300H500V200Z" fill="#00FF00"/>
<path d="M600 200H500V300H600V200Z" fill="#00FF00"/>
<path d="M700 200H600V300H700V200Z" fill="#FFFF00"/>
<path d="M800 200H700V300H800V200Z" fill="white"/>
<path d="M900 200H800V300H900V200Z" fill="#FF00FF"/>
<path d="M1000 200H900V300H1000V200Z" fill="#0000FF"/>
<path d="M100 300H0V400H100V300Z" fill="black"/>
<path d="M200 300H100V400H200V300Z" fill="#FF0000"/>
<path d="M300 300H200V400H300V300Z" fill="#FFFF00"/>
<path d="M400 300H300V400H400V300Z" fill="#FFFF00"/>
<path d="M500 300H400V400H500V300Z" fill="#00FF00"/>
<path d="M600 300H500V400H600V300Z" fill="#00FF00"/>
<path d="M700 300H600V400H700V300Z" fill="#FFFF00"/>
<path d="M800 300H700V400H800V300Z" fill="#FFFF00"/>
<path d="M900 300H800V400H900V300Z" fill="#FF0000"/>
<path d="M1000 300H900V400H1000V300Z" fill="black"/>
<path d="M100 400H0V500H100V400Z" fill="black"/>
<path d="M200 400H100V500H200V400Z" fill="black"/>
<path d="M300 400H200V500H300V400Z" fill="#00FF00"/>
<path d="M400 400H300V500H400V400Z" fill="#00FF00"/>
<path d="M500 400H400V500H500V400Z" fill="#00FF00"/>
<path d="M600 400H500V500H600V400Z" fill="#00FF00"/>
<path d="M700 400H600V500H700V400Z" fill="#00FF00"/>
<path d="M800 400H700V500H800V400Z" fill="#00FF00"/>
<path d="M900 400H800V500H900V400Z" fill="black"/>
<path d="M1000 400H900V500H1000V400Z" fill="black"/>
<path d="M100 500H0V600H100V500Z" fill="black"/>
<path d="M200 500H100V600H200V500Z" fill="black"/>
<path d="M300 500H200V600H300V500Z" fill="#00FF00"/>
<path d="M400 500H300V600H400V500Z" fill="#00FF00"/>
<path d="M500 500H400V600H500V500Z" fill="#00FF00"/>
<path d="M600 500H500V600H600V500Z" fill="#00FF00"/>
<path d="M700 500H600V600H700V500Z" fill="#00FF00"/>
<path d="M800 500H700V600H800V500Z" fill="#00FF00"/>
<path d="M900 500H800V600H900V500Z" fill="black"/>
<path d="M1000 500H900V600H1000V500Z" fill="black"/>
<path d="M100 600H0V700H100V600Z" fill="black"/>
<path d="M200 600H100V700H200V600Z" fill="#FF0000"/>
<path d="M300 600H200V700H300V600Z" fill="#FFFF00"/>
<path d="M400 600H300V700H400V600Z" fill="#FFFF00"/>
<path d="M500 600H400V700H500V600Z" fill="#00FF00"/>
<path d="M600 600H500V700H600V600Z" fill="#00FF00"/>
<path d="M700 600H600V700H700V600Z" fill="#FFFF00"/>
<path d="M800 600H700V700H800V600Z" fill="#FFFF00"/>
<path d="M900 600H800V700H900V600Z" fill="#FF0000"/>
<path d="M1000 600H900V700H1000V600Z" fill="black"/>
<path d="M100 700H0V800H100V700Z" fill="#0000FF"/>
<path d="M200 700H100V800H200V700Z" fill="#FF00FF"/>
<path d="M300 700H200V800H300V700Z" fill="white"/>
<path d="M400 700H300V800H400V700Z" fill="#FFFF00"/>
<path d="M500 700H400V800H500V700Z" fill="#00FF00"/>
<path d="M600 700H500V800H600V700Z" fill="#00FF00"/>
<path d="M700 700H600V800H700V700Z" fill="#FFFF00"/>
<path d="M800 700H700V800H800V700Z" fill="white"/>
<path d="M900 700H800V800H900V700Z" fill="#FF00FF"/>
<path d="M1000 700H900V800H1000V700Z" fill="#0000FF"/>
<path d="M100 800H0V900H100V800Z" fill="#0000FF"/>
<path d="M200 800H100V900H200V800Z" fill="#FF00FF"/>
<path d="M300 800H200V900H300V800Z" fill="#FF00FF"/>
<path d="M400 800H300V900H400V800Z" fill="#FF0000"/>
<path d="M500 800H400V900H500V800Z" fill="black"/>
<path d="M600 800H500V900H600V800Z" fill="black"/>
<path d="M700 800H600V900H700V800Z" fill="#FF0000"/>
<path d="M800 800H700V900H800V800Z" fill="#FF00FF"/>
<path d="M900 800H800V900H900V800Z" fill="#FF00FF"/>
<path d="M1000 800H900V900H1000V800Z" fill="#0000FF"/>
<path d="M100 900H0V1000H100V900Z" fill="#0000FF"/>
<path d="M200 900H100V1000H200V900Z" fill="#0000FF"/>
<path d="M300 900H200V1000H300V900Z" fill="#0000FF"/>
<path d="M400 900H300V1000H400V900Z" fill="black"/>
<path d="M500 900H400V1000H500V900Z" fill="black"/>
<path d="M600 900H500V1000H600V900Z" fill="black"/>
<path d="M700 900H600V1000H700V900Z" fill="black"/>
<path d="M800 900H700V1000H800V900Z" fill="#0000FF"/>
<path d="M900 900H800V1000H900V900Z" fill="#0000FF"/>
<path d="M1000 900H900V1000H1000V900Z" fill="#0000FF"/>
</g>
</g>
<defs>
<clipPath id="clip0_769_1975">
<rect width="1000" height="1000" fill="white"/>
</clipPath>
<clipPath id="clip1_769_1975">
<rect width="1050" height="1050" fill="white" transform="translate(-25 -25)"/>
</clipPath>
</defs>
</svg>
